<?xml version="1.0" encoding="UTF-8" standalone="no"?>
<!DOCTYPE svg PUBLIC "-//W3C//DTD SVG 1.1//EN" "http://www.w3.org/Graphics/SVG/1.1/DTD/svg11.dtd">
<svg width="100%" height="100%" viewBox="0 0 1080 1080" version="1.1" xmlns="http://www.w3.org/2000/svg" xmlns:xlink="http://www.w3.org/1999/xlink" xml:space="preserve" xmlns:serif="http://www.serif.com/" style="fill-rule:evenodd;clip-rule:evenodd;stroke-linejoin:round;stroke-miterlimit:2;">
    <rect id="Plan-de-travail1" x="0" y="0" width="1080" height="1080" style="fill:none;"/>
    <g>
        <clipPath id="_clip1">
            <rect x="0" y="0" width="1080" height="1080"/>
        </clipPath>
        <g clip-path="url(#_clip1)">
            <g transform="matrix(2.11765,0,0,2.11765,-1.68774,-2.11765)">
                <path d="M200.918,511C200.478,511 172.544,468.138 166.024,451.613C153.275,419.301 150.74,388.421 158.603,361.219C167.57,330.198 192.456,298.318 228.5,271.674C237.487,265.03 237.5,265.025 237.727,267.76C237.852,269.267 234.24,299.387 229.7,334.693C225.161,370 221.684,398.652 221.973,398.366C222.263,398.079 228.183,375.492 235.13,348.172C246.188,304.679 247.848,298.998 248.473,302.5C255.371,341.183 292.279,401.064 292.279,401.064C292.279,401.064 279.877,449.308 233,488.333C223.197,496.494 202.732,511 200.918,511ZM406,430.367C404.625,430.168 399.45,429.511 394.5,428.908C357.488,424.393 325.185,409.441 305.432,387.681C298.385,379.918 289.102,366.136 284.559,356.69C274.664,336.117 267.044,306.853 265.332,282.848L264.714,274.195L270.906,276.348C276.257,278.208 283.4,283.56 323.549,315.79C349.097,336.299 370,352.825 370,352.515C370,352.205 355.853,337.46 338.562,319.747C321.271,302.035 307.216,287.451 307.329,287.338C307.441,287.225 312.476,288.009 318.517,289.079C324.558,290.149 336.925,291.3 346,291.636C363.858,292.299 375.583,291.301 390.286,287.868C400.644,285.45 400.62,285.441 410.531,295.425C436.278,321.361 452.193,364.744 454.621,415.613L455.293,429.684L449,430.342C442.613,431.01 410.578,431.028 406,430.367ZM84.5,380.019C72.132,378.021 60.329,375.194 48.5,371.399C37.671,367.924 16,358.974 16,357.977C16,355.683 23.875,336.935 29.54,325.743C40.187,304.709 50.63,289.501 63.947,275.637C86.986,251.654 110.309,239.695 141.412,235.916C163.187,233.271 195.305,237.429 221.368,246.267L228.235,248.596L219.529,254.921C210.337,261.6 200.796,269.37 192.496,276.938C189.237,279.908 182.536,283.925 173.289,288.45C161.048,294.44 155.609,297.116 140.072,304.603C130.124,309.396 122.159,313.492 122.373,313.706C122.586,313.919 133.903,310.237 147.522,305.522C161.141,300.808 172.422,297.089 172.591,297.258C172.76,297.427 171.283,299.575 169.309,302.032C152.809,322.575 140.97,347.864 137.197,370.628L135.519,380.756L129.009,381.371C117.173,382.489 95.764,381.839 84.5,380.019ZM327.575,271.443C316.827,269.98 293.695,264.459 282.568,260.702L275.636,258.361L282.068,253.808C285.606,251.304 311.895,236.598 340.49,221.128C369.084,205.657 391.989,193 391.389,193C390.789,193 375.943,198.662 358.399,205.581C315.71,222.418 316.896,221.979 317.707,220.654C318.095,220.019 320.279,217.025 322.561,214C338.72,192.571 348.447,166.663 351.227,137.651C351.463,135.192 352.313,134.473 357.437,132.394C384.555,121.395 423.633,121.483 463.5,132.634C476.133,136.168 493.619,142.421 495.361,144.028C497.074,145.608 489.09,166.829 479.676,185.722C469.848,205.444 460.959,218.592 448.05,232.5C421.882,260.694 392.117,273.187 351.808,272.897C343.939,272.84 333.034,272.186 327.575,271.443ZM267.067,213.75C267.208,189.65 262.841,114.5 262.841,114.5L262.008,119.5C260.796,126.773 259.913,147.273 258.617,169.483C257.655,185.973 256.737,199.596 256.578,199.755C256.419,199.914 241.576,167.92 236.425,159.869C226.447,144.271 212.926,128.939 200.16,118.747L193.82,113.685L194.502,109.136C197.574,88.649 210.262,61.594 227.805,38.12C236.576,26.384 260.289,1 262.482,1C264.087,1 285.754,23.322 293.544,33C326.69,74.183 338.217,115.372 327.967,156C320.559,185.361 299.935,215.318 272.356,236.776C270.077,238.549 267.92,240 267.563,240C267.206,240 266.983,228.188 267.067,213.75ZM238,232.152C232.775,230.093 207.8,217.795 182.5,204.822C128.501,177.134 127.196,176.48 128.5,177.767C129.05,178.31 142.325,187.42 158,198.01C186.573,217.315 190.116,219.864 186.704,218.661C185.717,218.313 178.57,217.512 170.822,216.881C142.857,214.604 115.169,219.314 94.151,229.924L88.204,232.926L80.352,224.695C61.495,204.93 48.999,183.058 37.968,150.512C33.487,137.288 29.573,121.555 30.297,119.669C30.884,118.138 49.934,112.856 63,110.602C87.006,106.46 115.224,106.032 134.455,109.516C159.137,113.989 179.497,124.127 197.048,140.684C216.47,159.006 234.055,189.479 244.26,222.5C246.909,231.072 248.203,236.032 247.769,235.948C247.621,235.919 243.225,234.211 238,232.152Z" style="fill:rgb(16,166,76);fill-rule:nonzero;"/>
            </g>
        </g>
    </g>
</svg>
